<mxfile host="Electron" agent="Mozilla/5.0 (Macintosh; Intel Mac OS X 10_15_7) AppleWebKit/537.36 (KHTML, like Gecko) draw.io/26.0.16 Chrome/132.0.6834.196 Electron/34.2.0 Safari/537.36" version="26.0.16">
  <diagram name="Page-1" id="mndEk9QY9BaeSpU8-6wz">
    <mxGraphModel dx="612" dy="374" grid="1" gridSize="10" guides="1" tooltips="1" connect="1" arrows="1" fold="1" page="1" pageScale="1" pageWidth="850" pageHeight="1100" math="0" shadow="0">
      <root>
        <mxCell id="0" />
        <mxCell id="1" parent="0" />
        <mxCell id="taa8xAxR0ceIJ0fwDbvI-5" value="OFFER" style="swimlane;fontStyle=1;align=center;verticalAlign=top;childLayout=stackLayout;horizontal=1;startSize=26;horizontalStack=0;resizeParent=1;resizeParentMax=0;resizeLast=0;collapsible=1;marginBottom=0;whiteSpace=wrap;html=1;" vertex="1" parent="1">
          <mxGeometry x="40" y="110" width="280" height="290" as="geometry" />
        </mxCell>
        <mxCell id="taa8xAxR0ceIJ0fwDbvI-6" value="+ type : string&lt;div&gt;+ offerID : string&lt;br&gt;&lt;div&gt;+ price : float&lt;/div&gt;&lt;div&gt;+ description : string&lt;/div&gt;&lt;div&gt;+ image : string&lt;/div&gt;&lt;div&gt;+ availability : bool&lt;/div&gt;&lt;div&gt;+ title : string&lt;/div&gt;&lt;div&gt;+ payment : string&lt;/div&gt;&lt;div&gt;+ creator : string&lt;/div&gt;&lt;/div&gt;&lt;div&gt;- num_purchased : int&lt;/div&gt;&lt;div&gt;- reviews : reviews[]&lt;/div&gt;" style="text;strokeColor=none;fillColor=none;align=left;verticalAlign=top;spacingLeft=4;spacingRight=4;overflow=hidden;rotatable=0;points=[[0,0.5],[1,0.5]];portConstraint=eastwest;whiteSpace=wrap;html=1;" vertex="1" parent="taa8xAxR0ceIJ0fwDbvI-5">
          <mxGeometry y="26" width="280" height="174" as="geometry" />
        </mxCell>
        <mxCell id="taa8xAxR0ceIJ0fwDbvI-7" value="" style="line;strokeWidth=1;fillColor=none;align=left;verticalAlign=middle;spacingTop=-1;spacingLeft=3;spacingRight=3;rotatable=0;labelPosition=right;points=[];portConstraint=eastwest;strokeColor=inherit;" vertex="1" parent="taa8xAxR0ceIJ0fwDbvI-5">
          <mxGeometry y="200" width="280" height="8" as="geometry" />
        </mxCell>
        <mxCell id="taa8xAxR0ceIJ0fwDbvI-8" value="+ offer(type, price, availabliity, creator, title, payment)&lt;div&gt;+ delete() : void&lt;/div&gt;" style="text;strokeColor=none;fillColor=none;align=left;verticalAlign=top;spacingLeft=4;spacingRight=4;overflow=hidden;rotatable=0;points=[[0,0.5],[1,0.5]];portConstraint=eastwest;whiteSpace=wrap;html=1;" vertex="1" parent="taa8xAxR0ceIJ0fwDbvI-5">
          <mxGeometry y="208" width="280" height="82" as="geometry" />
        </mxCell>
        <mxCell id="taa8xAxR0ceIJ0fwDbvI-17" value="USER" style="swimlane;fontStyle=1;align=center;verticalAlign=top;childLayout=stackLayout;horizontal=1;startSize=26;horizontalStack=0;resizeParent=1;resizeParentMax=0;resizeLast=0;collapsible=1;marginBottom=0;whiteSpace=wrap;html=1;" vertex="1" parent="1">
          <mxGeometry x="510" y="30" width="160" height="180" as="geometry" />
        </mxCell>
        <mxCell id="taa8xAxR0ceIJ0fwDbvI-18" value="+ user_name : string&lt;div&gt;- user_ID : string&lt;/div&gt;&lt;div&gt;+ user_type : bool&lt;/div&gt;&lt;div&gt;- password : string&lt;/div&gt;&lt;div&gt;+ profile_image : string&lt;/div&gt;&lt;div&gt;+ profile_bio : string&lt;/div&gt;&lt;div&gt;+ user_phone : string&lt;/div&gt;" style="text;strokeColor=none;fillColor=none;align=left;verticalAlign=top;spacingLeft=4;spacingRight=4;overflow=hidden;rotatable=0;points=[[0,0.5],[1,0.5]];portConstraint=eastwest;whiteSpace=wrap;html=1;" vertex="1" parent="taa8xAxR0ceIJ0fwDbvI-17">
          <mxGeometry y="26" width="160" height="104" as="geometry" />
        </mxCell>
        <mxCell id="taa8xAxR0ceIJ0fwDbvI-19" value="" style="line;strokeWidth=1;fillColor=none;align=left;verticalAlign=middle;spacingTop=-1;spacingLeft=3;spacingRight=3;rotatable=0;labelPosition=right;points=[];portConstraint=eastwest;strokeColor=inherit;" vertex="1" parent="taa8xAxR0ceIJ0fwDbvI-17">
          <mxGeometry y="130" width="160" height="8" as="geometry" />
        </mxCell>
        <mxCell id="taa8xAxR0ceIJ0fwDbvI-20" value="+ method(type): type" style="text;strokeColor=none;fillColor=none;align=left;verticalAlign=top;spacingLeft=4;spacingRight=4;overflow=hidden;rotatable=0;points=[[0,0.5],[1,0.5]];portConstraint=eastwest;whiteSpace=wrap;html=1;" vertex="1" parent="taa8xAxR0ceIJ0fwDbvI-17">
          <mxGeometry y="138" width="160" height="42" as="geometry" />
        </mxCell>
        <mxCell id="taa8xAxR0ceIJ0fwDbvI-21" value="SELLER" style="swimlane;fontStyle=1;align=center;verticalAlign=top;childLayout=stackLayout;horizontal=1;startSize=26;horizontalStack=0;resizeParent=1;resizeParentMax=0;resizeLast=0;collapsible=1;marginBottom=0;whiteSpace=wrap;html=1;" vertex="1" parent="1">
          <mxGeometry x="410" y="280" width="160" height="220" as="geometry" />
        </mxCell>
        <mxCell id="taa8xAxR0ceIJ0fwDbvI-22" value="+ user_name : string&lt;div&gt;- user_ID : string&lt;/div&gt;&lt;div&gt;+ user_type : bool&lt;/div&gt;&lt;div&gt;- password : string&lt;/div&gt;&lt;div&gt;+ profile_image : string&lt;/div&gt;&lt;div&gt;+ profile_bio : string&lt;/div&gt;&lt;div&gt;+ user_phone : string&lt;/div&gt;&lt;div&gt;+ offers : offerID[]&lt;/div&gt;&lt;div&gt;+ subscription_ID : follow&lt;/div&gt;&lt;div&gt;+ mailing_list : mailing_list&lt;/div&gt;" style="text;strokeColor=none;fillColor=none;align=left;verticalAlign=top;spacingLeft=4;spacingRight=4;overflow=hidden;rotatable=0;points=[[0,0.5],[1,0.5]];portConstraint=eastwest;whiteSpace=wrap;html=1;" vertex="1" parent="taa8xAxR0ceIJ0fwDbvI-21">
          <mxGeometry y="26" width="160" height="144" as="geometry" />
        </mxCell>
        <mxCell id="taa8xAxR0ceIJ0fwDbvI-23" value="" style="line;strokeWidth=1;fillColor=none;align=left;verticalAlign=middle;spacingTop=-1;spacingLeft=3;spacingRight=3;rotatable=0;labelPosition=right;points=[];portConstraint=eastwest;strokeColor=inherit;" vertex="1" parent="taa8xAxR0ceIJ0fwDbvI-21">
          <mxGeometry y="170" width="160" height="8" as="geometry" />
        </mxCell>
        <mxCell id="taa8xAxR0ceIJ0fwDbvI-24" value="+ method(type): type" style="text;strokeColor=none;fillColor=none;align=left;verticalAlign=top;spacingLeft=4;spacingRight=4;overflow=hidden;rotatable=0;points=[[0,0.5],[1,0.5]];portConstraint=eastwest;whiteSpace=wrap;html=1;" vertex="1" parent="taa8xAxR0ceIJ0fwDbvI-21">
          <mxGeometry y="178" width="160" height="42" as="geometry" />
        </mxCell>
        <mxCell id="taa8xAxR0ceIJ0fwDbvI-26" value="SHOPPER" style="swimlane;fontStyle=1;align=center;verticalAlign=top;childLayout=stackLayout;horizontal=1;startSize=26;horizontalStack=0;resizeParent=1;resizeParentMax=0;resizeLast=0;collapsible=1;marginBottom=0;whiteSpace=wrap;html=1;" vertex="1" parent="1">
          <mxGeometry x="620" y="280" width="160" height="200" as="geometry" />
        </mxCell>
        <mxCell id="taa8xAxR0ceIJ0fwDbvI-27" value="+ user_name : string&lt;div&gt;- user_ID : string&lt;/div&gt;&lt;div&gt;+ user_type : bool&lt;/div&gt;&lt;div&gt;- password : string&lt;/div&gt;&lt;div&gt;+ profile_image : string&lt;/div&gt;&lt;div&gt;+ profile_bio : string&lt;/div&gt;&lt;div&gt;+ user_phone : string&lt;/div&gt;&lt;div&gt;+ wishlist : offerID[]&lt;/div&gt;" style="text;strokeColor=none;fillColor=none;align=left;verticalAlign=top;spacingLeft=4;spacingRight=4;overflow=hidden;rotatable=0;points=[[0,0.5],[1,0.5]];portConstraint=eastwest;whiteSpace=wrap;html=1;" vertex="1" parent="taa8xAxR0ceIJ0fwDbvI-26">
          <mxGeometry y="26" width="160" height="124" as="geometry" />
        </mxCell>
        <mxCell id="taa8xAxR0ceIJ0fwDbvI-28" value="" style="line;strokeWidth=1;fillColor=none;align=left;verticalAlign=middle;spacingTop=-1;spacingLeft=3;spacingRight=3;rotatable=0;labelPosition=right;points=[];portConstraint=eastwest;strokeColor=inherit;" vertex="1" parent="taa8xAxR0ceIJ0fwDbvI-26">
          <mxGeometry y="150" width="160" height="8" as="geometry" />
        </mxCell>
        <mxCell id="taa8xAxR0ceIJ0fwDbvI-29" value="+ joinList (userID) : void" style="text;strokeColor=none;fillColor=none;align=left;verticalAlign=top;spacingLeft=4;spacingRight=4;overflow=hidden;rotatable=0;points=[[0,0.5],[1,0.5]];portConstraint=eastwest;whiteSpace=wrap;html=1;" vertex="1" parent="taa8xAxR0ceIJ0fwDbvI-26">
          <mxGeometry y="158" width="160" height="42" as="geometry" />
        </mxCell>
        <mxCell id="taa8xAxR0ceIJ0fwDbvI-31" value="REVIEW" style="swimlane;fontStyle=1;align=center;verticalAlign=top;childLayout=stackLayout;horizontal=1;startSize=26;horizontalStack=0;resizeParent=1;resizeParentMax=0;resizeLast=0;collapsible=1;marginBottom=0;whiteSpace=wrap;html=1;" vertex="1" parent="1">
          <mxGeometry x="40" y="600" width="160" height="180" as="geometry" />
        </mxCell>
        <mxCell id="taa8xAxR0ceIJ0fwDbvI-32" value="+ reviewID : string&lt;div&gt;+ authorID : string&lt;br&gt;&lt;/div&gt;&lt;div&gt;+ offerID : string&lt;/div&gt;&lt;div&gt;+ date : string&lt;/div&gt;&lt;div&gt;+ content : string&lt;/div&gt;&lt;div&gt;+ rating : int&lt;/div&gt;" style="text;strokeColor=none;fillColor=none;align=left;verticalAlign=top;spacingLeft=4;spacingRight=4;overflow=hidden;rotatable=0;points=[[0,0.5],[1,0.5]];portConstraint=eastwest;whiteSpace=wrap;html=1;" vertex="1" parent="taa8xAxR0ceIJ0fwDbvI-31">
          <mxGeometry y="26" width="160" height="104" as="geometry" />
        </mxCell>
        <mxCell id="taa8xAxR0ceIJ0fwDbvI-33" value="" style="line;strokeWidth=1;fillColor=none;align=left;verticalAlign=middle;spacingTop=-1;spacingLeft=3;spacingRight=3;rotatable=0;labelPosition=right;points=[];portConstraint=eastwest;strokeColor=inherit;" vertex="1" parent="taa8xAxR0ceIJ0fwDbvI-31">
          <mxGeometry y="130" width="160" height="8" as="geometry" />
        </mxCell>
        <mxCell id="taa8xAxR0ceIJ0fwDbvI-34" value="+ method(type): type" style="text;strokeColor=none;fillColor=none;align=left;verticalAlign=top;spacingLeft=4;spacingRight=4;overflow=hidden;rotatable=0;points=[[0,0.5],[1,0.5]];portConstraint=eastwest;whiteSpace=wrap;html=1;" vertex="1" parent="taa8xAxR0ceIJ0fwDbvI-31">
          <mxGeometry y="138" width="160" height="42" as="geometry" />
        </mxCell>
        <mxCell id="taa8xAxR0ceIJ0fwDbvI-35" value="MAILING_LIST" style="swimlane;fontStyle=1;align=center;verticalAlign=top;childLayout=stackLayout;horizontal=1;startSize=26;horizontalStack=0;resizeParent=1;resizeParentMax=0;resizeLast=0;collapsible=1;marginBottom=0;whiteSpace=wrap;html=1;" vertex="1" parent="1">
          <mxGeometry x="350" y="580" width="270" height="200" as="geometry" />
        </mxCell>
        <mxCell id="taa8xAxR0ceIJ0fwDbvI-36" value="+ subscribers : userID[]&lt;div&gt;+ mailer : userID&lt;/div&gt;&lt;div&gt;+ currentOffers : offerID[]&lt;/div&gt;" style="text;strokeColor=none;fillColor=none;align=left;verticalAlign=top;spacingLeft=4;spacingRight=4;overflow=hidden;rotatable=0;points=[[0,0.5],[1,0.5]];portConstraint=eastwest;whiteSpace=wrap;html=1;" vertex="1" parent="taa8xAxR0ceIJ0fwDbvI-35">
          <mxGeometry y="26" width="270" height="74" as="geometry" />
        </mxCell>
        <mxCell id="taa8xAxR0ceIJ0fwDbvI-37" value="" style="line;strokeWidth=1;fillColor=none;align=left;verticalAlign=middle;spacingTop=-1;spacingLeft=3;spacingRight=3;rotatable=0;labelPosition=right;points=[];portConstraint=eastwest;strokeColor=inherit;" vertex="1" parent="taa8xAxR0ceIJ0fwDbvI-35">
          <mxGeometry y="100" width="270" height="8" as="geometry" />
        </mxCell>
        <mxCell id="taa8xAxR0ceIJ0fwDbvI-38" value="+ subscriber_ct() : int&lt;div&gt;+ insertShopper(userID) : void&lt;/div&gt;&lt;div&gt;+ checkSeller(userID, offerID[]) : offerID[]&lt;/div&gt;&lt;div&gt;+ sendMail(offerID[])&lt;/div&gt;" style="text;strokeColor=none;fillColor=none;align=left;verticalAlign=top;spacingLeft=4;spacingRight=4;overflow=hidden;rotatable=0;points=[[0,0.5],[1,0.5]];portConstraint=eastwest;whiteSpace=wrap;html=1;" vertex="1" parent="taa8xAxR0ceIJ0fwDbvI-35">
          <mxGeometry y="108" width="270" height="92" as="geometry" />
        </mxCell>
        <mxCell id="taa8xAxR0ceIJ0fwDbvI-39" style="edgeStyle=orthogonalEdgeStyle;rounded=0;orthogonalLoop=1;jettySize=auto;html=1;entryX=0;entryY=0.611;entryDx=0;entryDy=0;entryPerimeter=0;" edge="1" parent="1" source="taa8xAxR0ceIJ0fwDbvI-36" target="taa8xAxR0ceIJ0fwDbvI-22">
          <mxGeometry relative="1" as="geometry" />
        </mxCell>
        <mxCell id="taa8xAxR0ceIJ0fwDbvI-41" value="1" style="text;html=1;align=center;verticalAlign=middle;resizable=0;points=[];autosize=1;strokeColor=none;fillColor=none;" vertex="1" parent="1">
          <mxGeometry x="360" y="380" width="30" height="30" as="geometry" />
        </mxCell>
        <mxCell id="taa8xAxR0ceIJ0fwDbvI-42" value="1" style="text;html=1;align=center;verticalAlign=middle;resizable=0;points=[];autosize=1;strokeColor=none;fillColor=none;" vertex="1" parent="1">
          <mxGeometry x="580" y="610" width="30" height="30" as="geometry" />
        </mxCell>
      </root>
    </mxGraphModel>
  </diagram>
</mxfile>
